<svg width="24" height="22" viewBox="0 0 24 22" fill="none" xmlns="http://www.w3.org/2000/svg">
<path d="M22.1367 1.86328C22.5508 2.27734 22.8945 2.73047 23.168 3.22266C23.4414 3.71484 23.6484 4.22656 23.7891 4.75781C23.9297 5.28906 24 5.82812 24 6.375C24 6.92188 23.9336 7.46094 23.8008 7.99219C23.668 8.52344 23.4609 9.03516 23.1797 9.52734C22.8984 10.0195 22.5508 10.4727 22.1367 10.8867L12 21.0117L1.86328 10.8867C1.44922 10.4727 1.10547 10.0195 0.832031 9.52734C0.558594 9.03516 0.351562 8.52734 0.210938 8.00391C0.0703125 7.48047 0 6.94141 0 6.38672C0 5.83203 0.0664063 5.28906 0.199219 4.75781C0.332031 4.22656 0.539062 3.71484 0.820312 3.22266C1.10156 2.73047 1.44922 2.27734 1.86328 1.86328C2.47266 1.26172 3.16406 0.800781 3.9375 0.480469C4.71094 0.160156 5.52344 0 6.375 0C7.22656 0 8.03906 0.160156 8.8125 0.480469C9.58594 0.800781 10.2773 1.26172 10.8867 1.86328L12 2.98828L13.1133 1.86328C13.7227 1.26172 14.4141 0.800781 15.1875 0.480469C15.9609 0.160156 16.7734 0 17.625 0C18.4766 0 19.2891 0.160156 20.0625 0.480469C20.8359 0.800781 21.5273 1.26172 22.1367 1.86328Z" fill="#FF2B2B"/>
</svg>
