<svg width="24" height="22" fill="none" xmlns="http://www.w3.org/2000/svg"><path d="M22.137 1.863c.414.414.758.867 1.031 1.36.273.492.48 1.004.621 1.535.14.531.211 1.07.211 1.617 0 .547-.066 1.086-.2 1.617a6.034 6.034 0 01-.62 1.535 6.427 6.427 0 01-1.043 1.36L12 21.012 1.863 10.887a6.122 6.122 0 01-1.031-1.36c-.273-.492-.48-1-.621-1.523A6.206 6.206 0 010 6.387c0-.555.066-1.098.2-1.63.132-.53.34-1.042.62-1.534A6.427 6.427 0 013.938.48 6.308 6.308 0 016.374 0c.852 0 1.664.16 2.438.48a6.45 6.45 0 012.074 1.383L12 2.988l1.113-1.125A6.435 6.435 0 0115.188.48 6.308 6.308 0 0117.625 0c.852 0 1.664.16 2.438.48a6.45 6.45 0 012.074 1.383z" fill="#FF2B2B"/></svg>